<?xml version="1.0" encoding="UTF-8"?>
<svg id="Capa_1" data-name="Capa 1" xmlns="http://www.w3.org/2000/svg" viewBox="0 0 623.34 432.13">
  <defs>
    <style>
      .cls-1 {
        fill: #283476;
      }

      .cls-2 {
        fill: #ef7d1f;
      }
    </style>
  </defs>
  <g>
    <path class="cls-1" d="M17.46,418.68v-87.93h7.74v87.93h-7.74Z"/>
    <path class="cls-1" d="M131.76,418.68h-8.38l-59.09-76.09v76.09h-7.74v-87.93h8.38l59.09,76.09v-76.09h7.74v87.93Z"/>
    <path class="cls-1" d="M192.83,418.68h-7.74v-81.01h-29.02v-6.92h65.83v6.92h-29.08v81.01Z"/>
    <path class="cls-1" d="M246.22,418.68v-87.93h52.93v6.92h-45.2v32.77h42.79v6.92h-42.79v34.41h45.78v6.92h-53.52Z"/>
    <path class="cls-1" d="M397.69,346.28c-3.44-3.36-7.47-5.93-12.08-7.71-4.61-1.78-9.52-2.67-14.71-2.67s-10.43.95-14.98,2.84c-4.55,1.9-8.5,4.58-11.84,8.06-3.34,3.48-5.93,7.59-7.77,12.34-1.84,4.75-2.76,9.96-2.76,15.62s.9,10.75,2.7,15.48c1.8,4.73,4.32,8.83,7.56,12.31,3.24,3.48,7.08,6.18,11.52,8.09,4.43,1.92,9.29,2.87,14.57,2.87,5,0,9.63-.86,13.89-2.58,4.26-1.72,8-4.14,11.23-7.27,3.22-3.13,5.79-6.85,7.71-11.17,1.91-4.32,3.01-9.04,3.28-14.16h-34.41v-6.27h41.39l.23,2.81c0,6.68-1.06,12.8-3.17,18.35-2.11,5.55-5.09,10.36-8.94,14.42-3.85,4.06-8.4,7.21-13.66,9.44-5.26,2.23-11.03,3.34-17.32,3.34s-12.32-1.13-17.73-3.4c-5.41-2.27-10.12-5.45-14.13-9.56-4.01-4.1-7.11-8.92-9.32-14.45-2.21-5.53-3.31-11.56-3.31-18.08s1.12-12.7,3.37-18.29c2.25-5.59,5.4-10.45,9.47-14.6,4.06-4.14,8.85-7.36,14.36-9.64s11.51-3.43,18-3.43c6.14,0,11.95,1.06,17.44,3.17,5.49,2.11,10.37,5.14,14.63,9.09l-5.22,5.04Z"/>
    <path class="cls-1" d="M504.19,418.68h-8.62l-21.92-37.11h-25.68v37.11h-7.74v-87.93h32.36c6.02,0,11.22,1.04,15.59,3.11,4.38,2.07,7.76,5,10.14,8.79,2.38,3.79,3.58,8.3,3.58,13.54,0,6.37-1.78,11.68-5.33,15.92-3.56,4.24-8.48,7.04-14.77,8.41l22.39,38.16ZM447.97,374.65h24.21c6.72,0,12.04-1.65,15.94-4.95,3.91-3.3,5.86-7.81,5.86-13.51s-1.94-10.27-5.83-13.57c-3.89-3.3-9.21-4.95-15.97-4.95h-24.21v36.99Z"/>
    <path class="cls-1" d="M532.55,418.68h-8.15l36.46-87.93h8.56l36.46,87.93h-8.21l-10.38-25.38h-44.32l-10.43,25.38ZM545.74,386.38h38.81l-19.4-47.31-19.4,47.31Z"/>
  </g>
  <g>
    <path class="cls-1" d="M349.09,172.55c-4.49-19.08,8.65-37.94,28.2-40.53,7.73-1.03,14.88.57,21.56,4.51,2.56,1.51,2.88,1.36,2.88-1.58.01-22.26-.02-44.53.05-66.79,0-2.45-.72-3.27-3.24-3.26-21.03.09-42.06.05-63.08.04-.72,0-1.66.33-2.11-.29-.53-.72.32-1.35.67-1.95,11.84-20.19.51-45.7-22.52-50.65-.48-.1-.95-.23-1.43-.35h-10.89c-11.23,2.36-19.93,8.25-25,18.68-5.26,10.84-4.74,21.67,1.12,32.21,1.29,2.33,1.33,2.35-1.36,2.35-20.61,0-41.23,0-61.85,0q-4.5,0-4.51,4.42c0,20.78,0,41.56,0,62.34,0,.66-.03,1.32,0,1.98.1,1.86-.37,2.44-2.21,1.31-5.57-3.4-11.71-4.78-18.18-4.71-16.27.19-30.56,13.42-32.75,29.56-2.31,17.03,9.25,35.91,30.15,38.4,7.13.85,13.95-.64,20.25-4.18,2.72-1.53,2.74-1.55,2.74,1.53,0,21.36,0,42.71,0,64.07,0,.83.07,1.66,0,2.48-.22,2.36.8,3.11,3.15,3.1,13.39-.05,26.77-.03,40.15-.03v-114.47h23.63c12,0,21.71,9.72,21.71,21.7v92.75h51.16c17.22,0,34.44,0,51.65.03,2.06,0,2.74-.74,2.73-2.74-.04-22.51-.02-45.02-.03-67.54,0-2.67-.37-2.81-2.89-1.32-19.71,11.65-44.52,1.13-49.75-21.1"/>
    <path class="cls-2" d="M271.85,146.8c-13.46,0-24.36-10.9-24.36-24.37s10.91-24.36,24.36-24.36,24.38,10.9,24.38,24.36-10.92,24.37-24.38,24.37Z"/>
  </g>
</svg>